<?xml version="1.0" encoding="utf-8"?>
<!-- Generator: Adobe Illustrator 24.3.0, SVG Export Plug-In . SVG Version: 6.00 Build 0)  -->
<svg version="1.1" id="Camada_1" xmlns="http://www.w3.org/2000/svg" xmlns:xlink="http://www.w3.org/1999/xlink" x="0px" y="0px"
	 viewBox="0 0 768 1139.93" style="enable-background:new 0 0 768 1139.93;" xml:space="preserve">
<style type="text/css">
	.st0{opacity:0.8;}
	.st1{fill:none;stroke:#B2D732;stroke-miterlimit:10;stroke-dasharray:10.4987,10.4987,10.4987,10.4987,10.4987,10.4987;}
	.st2{fill:#251D48;}
	.st3{fill:#F0F7D4;}
	.st4{fill:#EDD4C0;}
	.st5{fill:#323333;}
	.st6{fill:#F7D33F;}
	.st7{fill:#FCE4E3;}
	.st8{fill:#D0BFAE;}
	.st9{fill:#F18989;}
	.st10{fill:#110934;}
	.st11{fill:#BBC29F;}
	.st12{fill:#E2C9B4;}
	.st13{fill:#131313;}
	.st14{fill:#EBC8B8;}
	.st15{fill:#C4A88B;}
	.st16{fill:#E2776F;}
	.st17{fill:#212028;}
	.st18{fill:#4424D6;}
	.st19{fill:#2606B8;}
	.st20{opacity:0.8;fill:none;stroke:#B2D732;stroke-miterlimit:10;stroke-dasharray:10,10,10,10,10,10;}
</style>
<g class="st0">
	<path class="st1" d="M656.4,179.96h1.2c32.81,0,59.4-26.59,59.4-59.4v-1.2c0-32.81-26.59-59.4-59.4-59.4h-1.2
		c-32.81,0-59.4,26.59-59.4,59.4v1.2C597,153.37,623.59,179.96,656.4,179.96z"/>
</g>
<path class="st2" d="M657.31,164.94h-0.43c-11.77,0-21.43-9.3-21.89-21.05l-1.58-46.13C632.93,85.33,642.87,75,655.3,75h3.59
	c12.43,0,22.37,10.34,21.89,22.76l-1.58,46.13C678.74,155.65,669.08,164.94,657.31,164.94"/>
<polygon class="st3" points="634.64,133.45 680.02,120.05 680.07,118.6 634.59,132.03 "/>
<polygon class="st3" points="634.06,116.6 663.78,124.8 664.14,123.47 634.01,115.15 "/>
<path class="st4" d="M672.89,95.88c0,8.72-7.07,15.79-15.79,15.79c-8.72,0-15.79-7.07-15.79-15.79c0-8.72,7.07-15.79,15.79-15.79
	C665.82,80.09,672.89,87.16,672.89,95.88"/>
<path class="st5" d="M657.1,80.09c-5.88,0-11.01,3.21-13.73,7.98c1.31,0.49,2.73,0.77,4.21,0.77c5.44,0,10.03-3.65,11.46-8.63
	C658.41,80.13,657.76,80.09,657.1,80.09"/>
<path class="st6" d="M657.51,80.09c2.01,3.73,5.96,6.27,10.5,6.27c0.54,0,1.08-0.04,1.61-0.11
	C666.81,82.61,662.44,80.22,657.51,80.09"/>
<path class="st7" d="M666.7,94.03c-1.99,0-3.61,1.62-3.61,3.61s1.62,3.61,3.61,3.61s3.61-1.62,3.61-3.61S668.69,94.03,666.7,94.03"
	/>
<path class="st7" d="M647.5,94.03c-1.99,0-3.61,1.62-3.61,3.61c0,1.99,1.62,3.61,3.61,3.61s3.61-1.62,3.61-3.61
	C651.11,95.65,649.49,94.03,647.5,94.03"/>
<path class="st8" d="M652.21,93.4c-1.69,0-3.06-0.98-3.06-2.18c0-0.15,0.12-0.27,0.27-0.27c0.15,0,0.27,0.12,0.27,0.27
	c0,0.89,1.15,1.64,2.52,1.64c1.36,0,2.52-0.75,2.52-1.64c0-0.15,0.12-0.27,0.27-0.27s0.27,0.12,0.27,0.27
	C655.27,92.42,653.9,93.4,652.21,93.4"/>
<path class="st8" d="M661.99,93.4c-1.69,0-3.06-0.98-3.06-2.18c0-0.15,0.12-0.27,0.27-0.27c0.15,0,0.27,0.12,0.27,0.27
	c0,0.89,1.15,1.64,2.52,1.64c1.36,0,2.52-0.75,2.52-1.64c0-0.15,0.12-0.27,0.27-0.27c0.15,0,0.27,0.12,0.27,0.27
	C665.06,92.42,663.68,93.4,661.99,93.4"/>
<path class="st9" d="M658.43,104.01c0-0.73-0.59-1.33-1.33-1.33c-0.73,0-1.33,0.59-1.33,1.33c0,0.73,0.59,1.33,1.33,1.33
	C657.83,105.33,658.43,104.74,658.43,104.01"/>
<path class="st10" d="M658.9,75h-1.7v5.09c8.67,0.05,15.69,7.1,15.69,15.79c0,8.69-7.02,15.74-15.69,15.79v9.89l6.65,1.84
	l16.22-4.79l-0.03,0.87l0.75-21.72C681.27,85.33,671.33,75,658.9,75 M680.02,120.05l-22.82,6.74v38.15h0.11
	c11.77,0,21.43-9.3,21.89-21.05L680.02,120.05 M657.2,122.98v2.37l4.15-1.23L657.2,122.98z"/>
<polygon class="st11" points="680.07,118.6 663.85,123.39 664.14,123.47 663.78,124.8 661.35,124.13 657.2,125.35 657.2,126.79 
	680.02,120.05 680.04,119.48 "/>
<polygon class="st11" points="657.2,121.55 657.2,122.98 661.35,124.13 663.78,124.8 664.14,123.47 663.85,123.39 "/>
<path class="st12" d="M657.2,80.09L657.2,80.09c0.1,0,0.21,0,0.31,0.01v0c4.93,0.13,9.3,2.51,12.11,6.16
	c-0.53,0.07-1.06,0.11-1.61,0.11c-3.87,0-7.31-1.84-9.49-4.7c-0.36,0.82-0.8,1.59-1.33,2.3v18.72c0.69,0.05,1.23,0.62,1.23,1.32
	c0,0.7-0.54,1.27-1.23,1.32v6.34c8.67-0.05,15.69-7.1,15.69-15.79C672.89,87.19,665.87,80.14,657.2,80.09 M661.99,92.85
	c1.36,0,2.52-0.75,2.52-1.64c0-0.15,0.12-0.27,0.27-0.27c0.15,0,0.27,0.12,0.27,0.27c0,1.2-1.37,2.18-3.06,2.18
	c-1.69,0-3.06-0.98-3.06-2.18c0-0.15,0.12-0.27,0.27-0.27c0.15,0,0.27,0.12,0.27,0.27C659.48,92.1,660.63,92.85,661.99,92.85
	 M666.7,101.25c-1.99,0-3.61-1.62-3.61-3.61s1.62-3.61,3.61-3.61s3.61,1.62,3.61,3.61S668.69,101.25,666.7,101.25"/>
<path class="st13" d="M657.2,80.09v3.88c0.52-0.71,0.97-1.48,1.33-2.3c-0.38-0.49-0.72-1.02-1.01-1.57
	C657.41,80.09,657.3,80.09,657.2,80.09"/>
<path class="st13" d="M657.51,80.09L657.51,80.09c0.3,0.55,0.64,1.08,1.01,1.57c2.18,2.86,5.62,4.7,9.49,4.7
	c0.54,0,1.08-0.04,1.61-0.11C666.81,82.61,662.44,80.22,657.51,80.09"/>
<path class="st14" d="M666.7,94.03c-1.99,0-3.61,1.62-3.61,3.61s1.62,3.61,3.61,3.61s3.61-1.62,3.61-3.61S668.69,94.03,666.7,94.03"
	/>
<path class="st15" d="M664.78,90.94c-0.15,0-0.27,0.12-0.27,0.27c0,0.89-1.15,1.64-2.52,1.64c-1.36,0-2.52-0.75-2.52-1.64
	c0-0.15-0.12-0.27-0.27-0.27s-0.27,0.12-0.27,0.27c0,1.2,1.37,2.18,3.06,2.18c1.69,0,3.06-0.98,3.06-2.18
	C665.06,91.07,664.93,90.94,664.78,90.94"/>
<path class="st16" d="M657.2,102.69v2.64c0.69-0.05,1.23-0.62,1.23-1.32C658.43,103.31,657.88,102.74,657.2,102.69"/>
<g class="st0">
	<path class="st1" d="M110.4,479.96h1.2c32.81,0,59.4-26.59,59.4-59.4v-1.2c0-32.81-26.59-59.4-59.4-59.4h-1.2
		c-32.81,0-59.4,26.59-59.4,59.4v1.2C51,453.37,77.59,479.96,110.4,479.96z"/>
</g>
<g>
	<path class="st2" d="M111,430.59v13.96H91.29c-1.18,0-2.14-0.96-2.14-2.14v-21.12l21.65,9.39L111,430.59z"/>
	<path class="st17" d="M111,395.71v34.88l-0.2,0.09l-21.65-9.39l-8.49-3.68h-0.01l-4.85-2.11l-9.8-4.25
		c10.85-3.39,36.89-13.19,44.01-15.88L111,395.71z"/>
	<path class="st2" d="M111,395.71v34.88l-0.2,0.09l-21.65-9.39l-8.49-3.68h-0.01l-4.85-2.11l-9.8-4.25
		c10.85-3.39,36.89-13.19,44.01-15.88L111,395.71z"/>
	<path class="st3" d="M110.8,410.57h0.2v-1.49c-0.06-0.01-0.13-0.01-0.2-0.01c-2.99,0-5.35,1.03-5.95,2.49L75.8,415.5l-1.9,0.26
		v8.46c-1.86,0.4-3.26,2.05-3.26,4.03c0,0.9,0.3,1.78,0.84,2.48l-1.71,10.17c-0.08,0.43,0.04,0.88,0.33,1.22
		c0.28,0.33,0.7,0.52,1.14,0.52h7.03c0.44,0,0.85-0.18,1.13-0.51c0.28-0.33,0.41-0.76,0.35-1.19l-1.46-10.6
		c0.38-0.63,0.58-1.35,0.58-2.09c0-1.49-0.8-2.79-1.98-3.51v-6.67l1.34-0.16l2.42-0.3h0.01l25.5-3.2c1.1,0.68,2.74,1.09,4.64,1.09
		c0.07,0,0.14,0,0.2-0.01V414h-0.2c-2.8,0-4.6-1.02-4.6-1.71C106.2,411.58,108,410.57,110.8,410.57z"/>
	<path class="st10" d="M135.69,419.88v22.53c0,1.18-0.96,2.14-2.14,2.14H111v-13.96L135.69,419.88z"/>
	<path class="st10" d="M156,411.07l-20.31,8.81L111,430.59v-15.1c3.38-0.04,5.89-1.41,5.89-3.2c0-1.8-2.51-3.17-5.89-3.21v-13.37
		L156,411.07z"/>
	<path class="st11" d="M116.89,412.29c0,1.79-2.51,3.16-5.89,3.2V414c2.7-0.05,4.4-1.04,4.4-1.71c0-0.69-1.7-1.67-4.4-1.72v-1.49
		C114.38,409.12,116.89,410.49,116.89,412.29z"/>
	<path class="st10" d="M115.4,412.29c0,0.67-1.7,1.66-4.4,1.71v-3.43C113.7,410.62,115.4,411.6,115.4,412.29z"/>
</g>
<g>
	<g>
		<path class="st11" d="M667.54,686.14h-21.09c-1.83,0-3.31,1.48-3.31,3.31v7.38c0,1.69,1.27,3.08,2.9,3.28
			c-0.18-0.4-0.28-0.84-0.28-1.31v-6.61c0-1.63,1.2-2.96,2.68-2.96h17.09c1.48,0,2.68,1.32,2.68,2.96v6.61
			c0,0.47-0.1,0.91-0.28,1.31c1.64-0.2,2.9-1.59,2.9-3.28v-7.38C670.85,687.62,669.37,686.14,667.54,686.14z"/>
	</g>
	<path class="st10" d="M612.89,713.03v38.64c0,1.83,1.45,3.31,3.24,3.31h81.75c1.79,0,3.24-1.48,3.24-3.31v-38.64H612.89z"/>
	<path class="st2" d="M702,700.42c0-1.99-1.48-3.61-3.31-3.61h-83.39c-1.83,0-3.31,1.61-3.31,3.61v18.13c0,3.16,2.56,5.72,5.72,5.72
		h78.55c3.16,0,5.72-2.56,5.72-5.72V700.42z"/>
	<path class="st11" d="M664.8,724.72c0,0.98-0.8,1.78-1.78,1.78h-12.03c-0.98,0-1.78-0.8-1.78-1.78v-3.22c0-0.98,0.8-1.78,1.78-1.78
		h12.03c0.98,0,1.78,0.8,1.78,1.78V724.72z"/>
	<path class="st3" d="M662.13,724.17c0,0.65-0.52,1.17-1.17,1.17h-7.92c-0.65,0-1.17-0.52-1.17-1.17v-2.12
		c0-0.65,0.52-1.17,1.17-1.17h7.92c0.65,0,1.17,0.52,1.17,1.17V724.17z"/>
	<g>
		<path class="st10" d="M646.54,686.95v1.39c0,0.98,0.8,1.78,1.78,1.78h17.36c0.98,0,1.78-0.8,1.78-1.78v-1.39
			c-2.63,0.74-6.34,1.21-10.46,1.21S649.17,687.69,646.54,686.95z"/>
		<path class="st10" d="M665.68,684.96h-17.36c-0.98,0-1.78,0.8-1.78,1.78v0.21c2.63,0.74,6.34,1.21,10.46,1.21
			s7.83-0.46,10.46-1.21v-0.21C667.46,685.75,666.66,684.96,665.68,684.96z"/>
	</g>
</g>
<g class="st0">
	<path class="st1" d="M656.4,779.96h1.2c32.81,0,59.4-26.59,59.4-59.4v-1.2c0-32.81-26.59-59.4-59.4-59.4h-1.2
		c-32.81,0-59.4,26.59-59.4,59.4v1.2C597,753.37,623.59,779.96,656.4,779.96z"/>
</g>
<g>
	<path class="st18" d="M90.28,1034.28H75c-1.46,0-2.64,1.18-2.64,2.64v25.41c0,1.46,1.18,2.64,2.64,2.64h15.28
		c1.46,0,2.64-1.18,2.64-2.64v-25.41C92.92,1035.47,91.74,1034.28,90.28,1034.28z"/>
	<path class="st19" d="M118.64,1020.08h-15.28c-1.46,0-2.64,1.18-2.64,2.64v39.61c0,1.46,1.18,2.64,2.64,2.64h15.28
		c1.46,0,2.64-1.18,2.64-2.64v-39.61C121.28,1021.26,120.1,1020.08,118.64,1020.08z"/>
	<path class="st10" d="M147,998.64h-15.28c-1.46,0-2.64,1.18-2.64,2.64v61.06c0,1.46,1.18,2.64,2.64,2.64H147
		c1.46,0,2.64-1.18,2.64-2.64v-61.06C149.64,999.82,148.46,998.64,147,998.64z"/>
	<path class="st3" d="M149.14,978.27c-0.38-0.68-1.03-1.16-1.79-1.31l-9.78-1.95c-1.43-0.28-2.82,0.64-3.1,2.07
		c-0.28,1.43,0.64,2.82,2.07,3.1l2.72,0.54l-23.2,12.95l-10.92-5.66c-0.77-0.4-1.68-0.39-2.44,0.01l-28.76,15.12
		c-1.29,0.68-1.78,2.27-1.11,3.56c0.47,0.9,1.39,1.41,2.34,1.41c0.41,0,0.83-0.1,1.22-0.3l27.54-14.48l10.96,5.68
		c0.79,0.41,1.72,0.39,2.5-0.04l24.42-13.63l-0.94,2.48c-0.52,1.36,0.17,2.88,1.53,3.4c0.31,0.12,0.62,0.17,0.93,0.17
		c1.06,0,2.07-0.65,2.47-1.7l3.49-9.21C149.57,979.76,149.51,978.95,149.14,978.27z"/>
	<path class="st2" d="M118.64,1064.96c1.46,0,2.64-1.18,2.64-2.64v-39.61c0-1.46-1.18-2.64-2.64-2.64H111v44.88H118.64z"/>
	<path class="st11" d="M149.14,978.27c-0.38-0.68-1.03-1.16-1.79-1.31l-9.78-1.95c-1.43-0.28-2.82,0.64-3.1,2.07
		c-0.28,1.43,0.64,2.82,2.07,3.1l2.72,0.54l-23.2,12.95l-5.06-2.63v5.94l3.9,2.02c0.79,0.41,1.72,0.39,2.5-0.04l24.42-13.63
		l-0.94,2.48c-0.52,1.36,0.17,2.88,1.53,3.4c0.31,0.12,0.62,0.17,0.93,0.17c1.06,0,2.07-0.65,2.47-1.7l3.49-9.21
		C149.57,979.76,149.51,978.95,149.14,978.27z"/>
</g>
<g class="st0">
	<path class="st1" d="M110.4,1079.96h1.2c32.81,0,59.4-26.59,59.4-59.4v-1.2c0-32.81-26.59-59.4-59.4-59.4h-1.2
		c-32.81,0-59.4,26.59-59.4,59.4v1.2C51,1053.37,77.59,1079.96,110.4,1079.96z"/>
</g>
<path class="st20" d="M604.19,148.91c0,0-7.46,120.62-220.08,120.62S163.5,390.45,163.5,390.45"/>
<path class="st20" d="M604.14,748.82c0,0-6.68,120.97-220.16,120.97S163.7,990.82,163.7,990.82"/>
<path class="st20" d="M604.51,690.44c0,0-7.32-121.02-220.67-121.02S163.88,448.78,163.88,448.78"/>
</svg>
