<?xml version="1.0" encoding="utf-8"?>
<!-- Generator: Adobe Illustrator 24.3.0, SVG Export Plug-In . SVG Version: 6.00 Build 0)  -->
<svg version="1.1" id="Camada_1" xmlns="http://www.w3.org/2000/svg" xmlns:xlink="http://www.w3.org/1999/xlink" x="0px" y="0px"
	 viewBox="0 0 1090.4 1200" style="enable-background:new 0 0 1090.4 1200;" xml:space="preserve">
<style type="text/css">
	.st0{fill:none;stroke:#B2D732;stroke-miterlimit:10;stroke-dasharray:10.4987,10.4987,10.4987,10.4987,10.4987,10.4987;}
	.st1{fill:#251D48;}
	.st2{fill:#B2D732;}
	.st3{fill:#EDD4C0;}
	.st4{fill:#323333;}
	.st5{fill:#F7D33F;}
	.st6{fill:#FCE4E3;}
	.st7{fill:#D0BFAE;}
	.st8{fill:#F18989;}
	.st9{fill:#110934;}
	.st10{fill:#9EC31E;}
	.st11{fill:#E2C9B4;}
	.st12{fill:#131313;}
	.st13{fill:#EBC8B8;}
	.st14{fill:#C4A88B;}
	.st15{fill:#E2776F;}
	.st16{fill:#212028;}
	.st17{fill:#4424D6;}
	.st18{fill:#2606B8;}
	.st19{fill:none;stroke:#B2D732;stroke-miterlimit:10;stroke-dasharray:10,10,10,10,10,10;}
</style>
<g>
	<path class="st0" d="M817.4,120h1.2c32.8,0,59.4-26.6,59.4-59.4v-1.2C878,26.6,851.4,0,818.6,0h-1.2C784.6,0,758,26.6,758,59.4v1.2
		C758,93.4,784.5,120,817.4,120z"/>
</g>
<path class="st1" d="M818.3,105h-0.4c-11.8,0-21.4-9.3-21.9-21l-1.6-46.1c-0.5-12.4,9.5-22.8,21.9-22.8h3.6
	c12.4,0,22.4,10.3,21.9,22.8L840.2,84C839.7,95.7,830,105,818.3,105"/>
<polygon class="st2" points="795.5,73.5 841,60.1 841,58.6 795.5,72.1 "/>
<polygon class="st2" points="795,56.6 824.8,64.8 825,63.5 795,55.2 "/>
<path class="st3" d="M833.9,35.9c0,8.7-7.1,15.8-15.8,15.8s-15.8-7.1-15.8-15.8s7.1-15.8,15.8-15.8S833.9,27.2,833.9,35.9"/>
<path class="st4" d="M818,20.1c-5.9,0-11,3.2-13.7,8c1.3,0.5,2.7,0.8,4.2,0.8c5.4,0,10-3.7,11.5-8.6C819.4,20.2,818.8,20.1,818,20.1
	"/>
<path class="st5" d="M818.5,20.1c2,3.7,6,6.3,10.5,6.3c0.5,0,1.1,0,1.6-0.1C827.8,22.7,823.4,20.3,818.5,20.1"/>
<path class="st6" d="M827.7,34.1c-2,0-3.6,1.6-3.6,3.6s1.6,3.6,3.6,3.6s3.6-1.6,3.6-3.6S829.7,34.1,827.7,34.1"/>
<path class="st6" d="M808.5,34.1c-2,0-3.6,1.6-3.6,3.6s1.6,3.6,3.6,3.6s3.6-1.6,3.6-3.6S810.5,34.1,808.5,34.1"/>
<path class="st7" d="M813.2,33.4c-1.7,0-3.1-1-3.1-2.2c0-0.2,0.1-0.3,0.3-0.3s0.3,0.1,0.3,0.3c0,0.9,1.2,1.6,2.5,1.6
	c1.4,0,2.5-0.8,2.5-1.6c0-0.2,0.1-0.3,0.3-0.3s0.3,0.1,0.3,0.3C816.3,32.5,814.9,33.4,813.2,33.4"/>
<path class="st7" d="M823,33.4c-1.7,0-3.1-1-3.1-2.2c0-0.2,0.1-0.3,0.3-0.3s0.3,0.1,0.3,0.3c0,0.9,1.2,1.6,2.5,1.6
	c1.4,0,2.5-0.8,2.5-1.6c0-0.2,0.1-0.3,0.3-0.3s0.3,0.1,0.3,0.3C826,32.5,824.7,33.4,823,33.4"/>
<path class="st8" d="M819.4,44.1c0-0.7-0.6-1.3-1.3-1.3s-1.3,0.6-1.3,1.3s0.6,1.3,1.3,1.3C818.8,45.4,819.4,44.8,819.4,44.1"/>
<path class="st9" d="M819.9,15h-1.7v5.1c8.7,0.1,15.7,7.1,15.7,15.8s-7,15.7-15.7,15.8v9.9l6.7,1.8l16.2-4.8v0.9l0.8-21.7
	C842.3,25.4,832.3,15,819.9,15 M841,60.1l-22.8,6.7V105h0.1c11.8,0,21.4-9.3,21.9-21L841,60.1 M818.2,63v2.4l4.2-1.2L818.2,63z"/>
<polygon class="st10" points="841,58.6 824.8,63.4 825,63.5 824.8,64.8 822.3,64.2 818.2,65.4 818.2,66.8 841,60.1 841,59.5 "/>
<polygon class="st10" points="818.2,61.6 818.2,63 822.3,64.2 824.8,64.8 825,63.5 824.8,63.4 "/>
<path class="st11" d="M818.2,20.1L818.2,20.1c0.1,0,0.2,0,0.3,0l0,0c4.9,0.1,9.3,2.5,12.1,6.2c-0.5,0.1-1.1,0.1-1.6,0.1
	c-3.9,0-7.3-1.8-9.5-4.7c-0.4,0.8-0.8,1.6-1.3,2.3v18.7c0.7,0.1,1.2,0.6,1.2,1.3s-0.5,1.3-1.2,1.3v6.3c8.7-0.1,15.7-7.1,15.7-15.8
	C833.9,27.2,826.9,20.2,818.2,20.1 M823,32.9c1.4,0,2.5-0.8,2.5-1.6c0-0.2,0.1-0.3,0.3-0.3s0.3,0.1,0.3,0.3c0,1.2-1.4,2.2-3.1,2.2
	s-3.1-1-3.1-2.2c0-0.2,0.1-0.3,0.3-0.3s0.3,0.1,0.3,0.3C820.5,32.1,821.5,32.9,823,32.9 M827.7,41.3c-2,0-3.6-1.6-3.6-3.6
	s1.6-3.6,3.6-3.6s3.6,1.6,3.6,3.6S829.7,41.3,827.7,41.3"/>
<path class="st12" d="M818.2,20.1V24c0.5-0.7,1-1.5,1.3-2.3c-0.4-0.5-0.7-1-1-1.6C818.4,20.1,818.3,20.1,818.2,20.1"/>
<path class="st12" d="M818.5,20.1L818.5,20.1c0.3,0.6,0.6,1.1,1,1.6c2.2,2.9,5.6,4.7,9.5,4.7c0.5,0,1.1,0,1.6-0.1
	C827.8,22.7,823.4,20.3,818.5,20.1"/>
<path class="st13" d="M827.7,34.1c-2,0-3.6,1.6-3.6,3.6s1.6,3.6,3.6,3.6s3.6-1.6,3.6-3.6S829.7,34.1,827.7,34.1"/>
<path class="st14" d="M825.8,31c-0.2,0-0.3,0.1-0.3,0.3c0,0.9-1.2,1.6-2.5,1.6c-1.4,0-2.5-0.8-2.5-1.6c0-0.2-0.1-0.3-0.3-0.3
	s-0.3,0.1-0.3,0.3c0,1.2,1.4,2.2,3.1,2.2s3.1-1,3.1-2.2C826,31.1,825.9,31,825.8,31"/>
<path class="st15" d="M818.2,42.7v2.6c0.7-0.1,1.2-0.6,1.2-1.3C819.4,43.4,818.9,42.8,818.2,42.7"/>
<g>
	<path class="st0" d="M271.4,420h1.2c32.8,0,59.4-26.6,59.4-59.4v-1.2c0-32.8-26.6-59.4-59.4-59.4h-1.2c-32.8,0-59.4,26.6-59.4,59.4
		v1.2C211.9,393.4,238.5,420,271.4,420z"/>
</g>
<path class="st1" d="M272,370.6v14h-19.7c-1.2,0-2.1-1-2.1-2.1v-21.1l21.7,9.4L272,370.6z"/>
<path class="st16" d="M272,335.8v34.9l-0.2,0.1l-21.7-9.4l-8.5-3.7l0,0l-4.8-2.1l-9.8-4.3c10.8-3.4,36.9-13.2,44-15.9L272,335.8z"/>
<path class="st1" d="M272,335.8v34.9l-0.2,0.1l-21.7-9.4l-8.5-3.7l0,0l-4.8-2.1l-9.8-4.3c10.8-3.4,36.9-13.2,44-15.9L272,335.8z"/>
<path class="st2" d="M271.8,350.6h0.2v-1.5c-0.1,0-0.1,0-0.2,0c-3,0-5.3,1-5.9,2.5l-29.1,3.9l-1.9,0.3v8.5c-1.9,0.4-3.3,2-3.3,4
	c0,0.9,0.3,1.8,0.8,2.5l-1.7,10.2c-0.1,0.4,0,0.9,0.3,1.2c0.3,0.3,0.7,0.5,1.1,0.5h7c0.4,0,0.8-0.2,1.1-0.5s0.4-0.8,0.3-1.2
	l-1.5-10.6c0.4-0.6,0.6-1.4,0.6-2.1c0-1.5-0.8-2.8-2-3.5v-6.7l1.3-0.2l2.4-0.3l0,0l25.5-3.2c1.1,0.7,2.7,1.1,4.6,1.1
	c0.1,0,0.1,0,0.2,0V354h-0.2c-2.8,0-4.6-1-4.6-1.7C267.1,351.6,269,350.6,271.8,350.6z"/>
<path class="st9" d="M296.6,359.9v22.5c0,1.2-1,2.1-2.1,2.1H272v-14L296.6,359.9z"/>
<path class="st9" d="M317,351.1l-20.3,8.8L272,370.6v-15.1c3.4,0,5.9-1.4,5.9-3.2c0-1.8-2.5-3.2-5.9-3.2v-13.4L317,351.1z"/>
<path class="st10" d="M277.9,352.3c0,1.8-2.5,3.2-5.9,3.2V354c2.7,0,4.4-1,4.4-1.7s-1.7-1.7-4.4-1.7v-1.5
	C275.4,349.2,277.9,350.5,277.9,352.3z"/>
<path class="st9" d="M276.4,352.3c0,0.7-1.7,1.7-4.4,1.7v-3.4C274.6,350.7,276.4,351.6,276.4,352.3z"/>
<g>
	<g>
		<path class="st10" d="M828.5,626.2h-21.1c-1.8,0-3.3,1.5-3.3,3.3v7.4c0,1.7,1.3,3.1,2.9,3.3c-0.2-0.4-0.3-0.8-0.3-1.3v-6.6
			c0-1.6,1.2-3,2.7-3h17.1c1.5,0,2.7,1.3,2.7,3v6.6c0,0.5-0.1,0.9-0.3,1.3c1.6-0.2,2.9-1.6,2.9-3.3v-7.4
			C831.8,627.7,830.4,626.2,828.5,626.2z"/>
	</g>
	<path class="st9" d="M773.9,653.1v38.6c0,1.8,1.5,3.3,3.2,3.3h81.8c1.8,0,3.2-1.5,3.2-3.3v-38.6H773.9z"/>
	<path class="st1" d="M863,640.5c0-2-1.5-3.6-3.3-3.6h-83.4c-1.8,0-3.3,1.6-3.3,3.6v18.1c0,3.2,2.6,5.7,5.7,5.7h78.5
		c3.2,0,5.7-2.6,5.7-5.7L863,640.5L863,640.5z"/>
	<path class="st10" d="M825.8,664.8c0,1-0.8,1.8-1.8,1.8h-12c-1,0-1.8-0.8-1.8-1.8v-3.2c0-1,0.8-1.8,1.8-1.8h12c1,0,1.8,0.8,1.8,1.8
		V664.8z"/>
	<path class="st2" d="M823,664.2c0,0.7-0.5,1.2-1.2,1.2H814c-0.7,0-1.2-0.5-1.2-1.2v-2.1c0-0.7,0.5-1.2,1.2-1.2h7.9
		c0.7,0,1.2,0.5,1.2,1.2L823,664.2L823,664.2z"/>
	<g>
		<path class="st9" d="M807.5,627v1.4c0,1,0.8,1.8,1.8,1.8h17.4c1,0,1.8-0.8,1.8-1.8V627c-2.6,0.7-6.3,1.2-10.5,1.2
			S810.2,627.7,807.5,627z"/>
		<path class="st9" d="M826.7,625h-17.4c-1,0-1.8,0.8-1.8,1.8v0.2c2.6,0.7,6.3,1.2,10.5,1.2s7.8-0.5,10.5-1.2v-0.2
			C828.5,625.8,827.7,625,826.7,625z"/>
	</g>
</g>
<g>
	<path class="st0" d="M817.4,720h1.2c32.8,0,59.4-26.6,59.4-59.4v-1.2c0-32.8-26.6-59.4-59.4-59.4h-1.2c-32.8,0-59.4,26.6-59.4,59.4
		v1.2C758,693.4,784.5,720,817.4,720z"/>
</g>
<g>
	<path class="st17" d="M251.3,974.3H236c-1.5,0-2.6,1.2-2.6,2.6v25.4c0,1.5,1.2,2.6,2.6,2.6h15.3c1.5,0,2.6-1.2,2.6-2.6V977
		C253.9,975.5,252.6,974.3,251.3,974.3z"/>
	<path class="st18" d="M279.5,960.1h-15.3c-1.5,0-2.6,1.2-2.6,2.6v39.6c0,1.5,1.2,2.6,2.6,2.6h15.3c1.5,0,2.6-1.2,2.6-2.6v-39.6
		C282.3,961.3,281,960.1,279.5,960.1z"/>
	<path class="st9" d="M308,938.7h-15.3c-1.5,0-2.6,1.2-2.6,2.6v61.1c0,1.5,1.2,2.6,2.6,2.6H308c1.5,0,2.6-1.2,2.6-2.6v-61.1
		C310.5,939.9,309.5,938.7,308,938.7z"/>
	<path class="st2" d="M310,918.3c-0.4-0.7-1-1.2-1.8-1.3l-9.8-2c-1.4-0.3-2.8,0.6-3.1,2.1c-0.3,1.5,0.6,2.8,2.1,3.1l2.7,0.5
		l-23.2,13L266,928c-0.8-0.4-1.7-0.4-2.4,0l-28.8,15.1c-1.3,0.7-1.8,2.3-1.1,3.6c0.5,0.9,1.4,1.4,2.3,1.4c0.4,0,0.8-0.1,1.2-0.3
		l27.5-14.5l11,5.7c0.8,0.4,1.7,0.4,2.5,0l24.4-13.6l-0.9,2.5c-0.5,1.4,0.2,2.9,1.5,3.4c0.3,0.1,0.6,0.2,0.9,0.2
		c1.1,0,2.1-0.7,2.5-1.7l3.5-9.2C310.5,919.8,310.5,919,310,918.3z"/>
	<path class="st1" d="M279.5,1005c1.5,0,2.6-1.2,2.6-2.6v-39.6c0-1.5-1.2-2.6-2.6-2.6H272v44.9L279.5,1005L279.5,1005z"/>
	<path class="st10" d="M310,918.3c-0.4-0.7-1-1.2-1.8-1.3l-9.8-2c-1.4-0.3-2.8,0.6-3.1,2.1c-0.3,1.5,0.6,2.8,2.1,3.1l2.7,0.5
		l-23.2,13l-5.1-2.6v5.9l3.9,2c0.8,0.4,1.7,0.4,2.5,0l24.4-13.6l-0.9,2.5c-0.5,1.4,0.2,2.9,1.5,3.4c0.3,0.1,0.6,0.2,0.9,0.2
		c1.1,0,2.1-0.7,2.5-1.7l3.5-9.2C310.5,919.8,310.5,919,310,918.3z"/>
</g>
<g>
	<path class="st0" d="M271.4,1020h1.2c32.8,0,59.4-26.6,59.4-59.4v-1.2c0-32.8-26.6-59.4-59.4-59.4h-1.2
		c-32.8,0-59.4,26.6-59.4,59.4v1.2C211.9,993.4,238.5,1020,271.4,1020z"/>
</g>
<path class="st19" d="M765.2,89c0,0-7.5,120.6-220.1,120.6S324.5,330.5,324.5,330.5"/>
<path class="st19" d="M765,688.9c0,0-6.7,121-220.2,121s-220.3,121-220.3,121"/>
<path class="st19" d="M765.5,630.5c0,0-7.3-121-220.7-121s-220-120.6-220-120.6"/>
</svg>
