<?xml version="1.0" encoding="utf-8"?>
<!-- Generator: Adobe Illustrator 24.3.0, SVG Export Plug-In . SVG Version: 6.00 Build 0)  -->
<svg version="1.1" id="Camada_1" xmlns="http://www.w3.org/2000/svg" xmlns:xlink="http://www.w3.org/1999/xlink" x="0px" y="0px"
	 viewBox="0 0 280 3072" style="enable-background:new 0 0 280 3072;" xml:space="preserve">
<style type="text/css">
	.st0{fill:#B2D732;}
	.st1{fill:#251D48;}
	.st2{fill:#EDD4C0;}
	.st3{fill:#323333;}
	.st4{fill:#F7D33F;}
	.st5{fill:#FCE4E3;}
	.st6{fill:#D0BFAE;}
	.st7{fill:#F18989;}
	.st8{fill:#110934;}
	.st9{fill:#9EC31E;}
	.st10{fill:#E2C9B4;}
	.st11{fill:#131313;}
	.st12{fill:#EBC8B8;}
	.st13{fill:#C4A88B;}
	.st14{fill:#E2776F;}
	.st15{fill:#212028;}
	.st16{fill:#4424D6;}
	.st17{fill:#2606B8;}
</style>
<g>
	<g>
		<path class="st0" d="M140.5,105l-1.3,0l0-0.9l1.2,0c2.7,0,5.4-0.2,8-0.6l0.1,0.9C146,104.8,143.2,105,140.5,105z M130.1,104.2
			c-3-0.5-6-1.4-8.8-2.4l0.3-0.8c2.8,1,5.7,1.9,8.7,2.4L130.1,104.2z M157.5,102.2l-0.3-0.8c2.8-1,5.6-2.2,8.2-3.7l0.4,0.8
			C163.2,99.9,160.4,101.2,157.5,102.2z M113,97.8c-2.6-1.6-5.1-3.4-7.5-5.4l0.6-0.7c2.3,2,4.7,3.7,7.3,5.3L113,97.8z M173.5,93.3
			l-0.6-0.7c2.3-1.9,4.5-4,6.4-6.3l0.7,0.6C178.1,89.2,175.8,91.3,173.5,93.3z M99.1,85.9c-1.9-2.4-3.7-4.9-5.1-7.6l0.8-0.4
			c1.5,2.6,3.2,5.1,5.1,7.5L99.1,85.9z M185.4,79.4l-0.7-0.4c1.5-2.6,2.8-5.3,3.9-8.1l0.8,0.3C188.2,73.9,186.9,76.7,185.4,79.4z
			 M90.3,69.9c-1-2.9-1.7-5.9-2.2-8.9l0.9-0.1c0.5,3,1.2,5.9,2.2,8.8L90.3,69.9z M191.7,62.2l-0.9-0.2c0.5-2.9,0.8-6,0.8-9l0.9,0
			C192.5,56.2,192.2,59.2,191.7,62.2z M88.3,51.9l-0.9,0c0-3.1,0.3-6.1,0.8-9.1l0.9,0.2C88.6,45.8,88.4,48.8,88.3,51.9z M191,44.1
			c-0.5-3-1.2-5.9-2.2-8.8l0.8-0.3c1,2.9,1.7,5.9,2.2,8.9L191,44.1z M91.5,34.2l-0.8-0.3c1.1-2.9,2.4-5.6,3.9-8.3l0.7,0.4
			C93.9,28.6,92.6,31.4,91.5,34.2z M185.2,27.1c-1.5-2.6-3.2-5.1-5.1-7.5l0.7-0.6c1.9,2.4,3.7,4.9,5.2,7.6L185.2,27.1z M100.7,18.7
			l-0.7-0.6c2-2.3,4.2-4.5,6.6-6.4l0.5,0.7C104.8,14.3,102.6,16.4,100.7,18.7z M173.8,13.2c-2.3-2-4.8-3.7-7.3-5.2l0.4-0.7
			c2.6,1.6,5.1,3.3,7.5,5.3L173.8,13.2z M114.6,7.3l-0.4-0.8c2.7-1.5,5.5-2.8,8.4-3.7l0.3,0.8C120,4.6,117.2,5.9,114.6,7.3z
			 M158.3,4c-2.8-1-5.7-1.8-8.7-2.4l0.2-0.9c3,0.5,6,1.4,8.9,2.4L158.3,4z M131.6,1.5l-0.1-0.9c2.6-0.4,5.3-0.6,8-0.6h1.1v0.9h-1.1
			C136.8,0.9,134.2,1.1,131.6,1.5z"/>
	</g>
</g>
<g>
	<path class="st1" d="M140.3,91.6h-0.3c-10.2,0-18.6-8.1-19-18.2l-1.4-40c-0.4-10.8,8.2-19.8,19-19.8h3.1c10.8,0,19.4,8.9,19,19.8
		l-1.4,40C158.8,83.5,150.4,91.6,140.3,91.6"/>
</g>
<g>
	<polygon class="st0" points="120.5,64.2 160,52.6 160,51.3 120.5,63 	"/>
</g>
<g>
	<polygon class="st0" points="120,49.6 145.9,56.7 146.1,55.6 120,48.4 	"/>
</g>
<g>
	<path class="st2" d="M153.8,31.6c0,7.6-6.2,13.7-13.7,13.7s-13.7-6.2-13.7-13.7s6.2-13.7,13.7-13.7S153.8,24,153.8,31.6"/>
</g>
<g>
	<path class="st3" d="M140,17.9c-5.1,0-9.5,2.8-11.9,6.9c1.1,0.4,2.3,0.7,3.6,0.7c4.7,0,8.7-3.2,10-7.5
		C141.2,18,140.7,17.9,140,17.9"/>
</g>
<g>
	<path class="st4" d="M140.4,17.9c1.7,3.2,5.2,5.5,9.1,5.5c0.4,0,1,0,1.4-0.1C148.5,20.1,144.7,18.1,140.4,17.9"/>
</g>
<g>
	<path class="st5" d="M148.4,30c-1.7,0-3.1,1.4-3.1,3.1s1.4,3.1,3.1,3.1c1.7,0,3.1-1.4,3.1-3.1S150.2,30,148.4,30"/>
</g>
<g>
	<path class="st5" d="M131.8,30c-1.7,0-3.1,1.4-3.1,3.1s1.4,3.1,3.1,3.1s3.1-1.4,3.1-3.1S133.5,30,131.8,30"/>
</g>
<g>
	<path class="st6" d="M135.8,29.4c-1.5,0-2.7-0.9-2.7-1.9c0-0.2,0.1-0.3,0.3-0.3c0.2,0,0.3,0.1,0.3,0.3c0,0.8,1,1.4,2.2,1.4
		c1.2,0,2.2-0.7,2.2-1.4c0-0.2,0.1-0.3,0.3-0.3c0.2,0,0.3,0.1,0.3,0.3C138.5,28.6,137.3,29.4,135.8,29.4"/>
</g>
<g>
	<path class="st6" d="M144.3,29.4c-1.5,0-2.7-0.9-2.7-1.9c0-0.2,0.1-0.3,0.3-0.3c0.2,0,0.3,0.1,0.3,0.3c0,0.8,1,1.4,2.2,1.4
		c1.2,0,2.2-0.7,2.2-1.4c0-0.2,0.1-0.3,0.3-0.3s0.3,0.1,0.3,0.3C146.9,28.6,145.8,29.4,144.3,29.4"/>
</g>
<g>
	<path class="st7" d="M141.2,38.7c0-0.6-0.5-1.1-1.1-1.1s-1.1,0.5-1.1,1.1c0,0.6,0.5,1.1,1.1,1.1C140.7,39.8,141.2,39.3,141.2,38.7"
		/>
</g>
<g>
	<path class="st8" d="M141.6,13.5h-1.5v4.4c7.6,0.1,13.6,6.2,13.6,13.7s-6.1,13.6-13.6,13.7v8.6l5.8,1.6l14.1-4.2v0.8l0.7-18.8
		C161.1,22.5,152.4,13.5,141.6,13.5 M160,52.6l-19.8,5.8v33.2h0.1c10.2,0,18.6-8.1,19-18.2L160,52.6 M140.2,55.1v2.1l3.6-1
		L140.2,55.1z"/>
</g>
<g>
	<polygon class="st9" points="160,51.3 145.9,55.5 146.1,55.6 145.9,56.7 143.7,56.2 140.2,57.2 140.2,58.4 160,52.6 160,52.1 	"/>
</g>
<g>
	<polygon class="st9" points="140.2,53.9 140.2,55.1 143.7,56.2 145.9,56.7 146.1,55.6 145.9,55.5 	"/>
</g>
<g>
	<path class="st10" d="M140.2,17.9L140.2,17.9c0.1,0,0.2,0,0.3,0l0,0c4.3,0.1,8.1,2.2,10.5,5.4c-0.4,0.1-1,0.1-1.4,0.1
		c-3.4,0-6.3-1.6-8.2-4.1c-0.3,0.7-0.7,1.4-1.1,2v16.2c0.6,0.1,1,0.5,1,1.1c0,0.6-0.4,1.1-1,1.1v5.5c7.6-0.1,13.6-6.2,13.6-13.7
		C153.8,24,147.7,18,140.2,17.9 M144.3,29c1.2,0,2.2-0.7,2.2-1.4c0-0.2,0.1-0.3,0.3-0.3s0.3,0.1,0.3,0.3c0,1-1.2,1.9-2.7,1.9
		c-1.5,0-2.7-0.9-2.7-1.9c0-0.2,0.1-0.3,0.3-0.3c0.2,0,0.3,0.1,0.3,0.3C142.2,28.3,143,29,144.3,29 M148.4,36.3
		c-1.7,0-3.1-1.4-3.1-3.1s1.4-3.1,3.1-3.1c1.7,0,3.1,1.4,3.1,3.1S150.2,36.3,148.4,36.3"/>
</g>
<g>
	<path class="st11" d="M140.2,17.9v3.4c0.4-0.6,0.9-1.3,1.1-2c-0.3-0.4-0.6-0.9-0.9-1.4C140.3,17.9,140.3,17.9,140.2,17.9"/>
</g>
<g>
	<path class="st11" d="M140.4,17.9L140.4,17.9c0.3,0.5,0.5,1,0.9,1.4c1.9,2.5,4.9,4.1,8.2,4.1c0.4,0,1,0,1.4-0.1
		C148.5,20.1,144.7,18.1,140.4,17.9"/>
</g>
<g>
	<path class="st12" d="M148.4,30c-1.7,0-3.1,1.4-3.1,3.1s1.4,3.1,3.1,3.1c1.7,0,3.1-1.4,3.1-3.1S150.2,30,148.4,30"/>
</g>
<g>
	<path class="st13" d="M146.8,27.3c-0.2,0-0.3,0.1-0.3,0.3c0,0.8-1,1.4-2.2,1.4c-1.2,0-2.2-0.7-2.2-1.4c0-0.2-0.1-0.3-0.3-0.3
		c-0.2,0-0.3,0.1-0.3,0.3c0,1,1.2,1.9,2.7,1.9c1.5,0,2.7-0.9,2.7-1.9C146.9,27.4,146.9,27.3,146.8,27.3"/>
</g>
<g>
	<path class="st14" d="M140.2,37.5v2.3c0.6-0.1,1-0.5,1-1.1C141.2,38.1,140.8,37.6,140.2,37.5"/>
</g>
<g>
	<g>
		<g>
			<path class="st0" d="M140.5,873l-1.3,0v-0.9l1.3,0c2.7,0,5.4-0.2,8-0.6l0.1,0.9C146,872.8,143.2,873,140.5,873z M130.1,872.2
				c-3-0.5-6-1.4-8.8-2.4l0.3-0.8c2.8,1,5.7,1.9,8.7,2.4L130.1,872.2z M157.5,870.2l-0.3-0.8c2.8-1,5.6-2.2,8.2-3.7l0.4,0.8
				C163.2,867.9,160.4,869.2,157.5,870.2z M113,865.8c-2.6-1.6-5.1-3.4-7.5-5.3l0.6-0.7c2.3,2,4.7,3.7,7.3,5.3L113,865.8z
				 M173.5,861.3l-0.6-0.7c2.3-1.9,4.5-4,6.4-6.3l0.7,0.6C178.1,857.2,175.8,859.3,173.5,861.3z M99.1,853.9
				c-1.9-2.4-3.7-4.9-5.2-7.6l0.8-0.4c1.5,2.6,3.2,5.1,5.1,7.5L99.1,853.9z M185.4,847.4l-0.7-0.4c1.5-2.6,2.8-5.3,3.9-8.1l0.8,0.3
				C188.2,841.9,186.9,844.7,185.4,847.4z M90.2,837.9c-1-2.9-1.7-5.9-2.2-8.9l0.9-0.1c0.4,3,1.2,5.9,2.1,8.8L90.2,837.9z
				 M191.7,830.2l-0.9-0.2c0.5-2.9,0.8-6,0.8-9h0.9C192.5,824.2,192.2,827.2,191.7,830.2z M88.3,819.9l-0.9,0c0-3.1,0.3-6.1,0.8-9.1
				l0.9,0.2C88.6,813.8,88.4,816.8,88.3,819.9z M191,812.1c-0.5-3-1.2-5.9-2.2-8.8l0.8-0.3c1,2.9,1.7,5.9,2.2,8.9L191,812.1z
				 M91.5,802.2l-0.8-0.3c1.1-2.9,2.4-5.6,3.9-8.3l0.7,0.4C93.9,796.6,92.6,799.4,91.5,802.2z M185.2,795.1
				c-1.5-2.6-3.2-5.1-5.1-7.5l0.7-0.5c1.9,2.4,3.7,4.9,5.2,7.6L185.2,795.1z M100.7,786.7l-0.7-0.6c2-2.3,4.2-4.5,6.6-6.4l0.5,0.7
				C104.8,782.3,102.6,784.4,100.7,786.7z M173.8,781.2c-2.3-2-4.8-3.7-7.3-5.2l0.4-0.7c2.6,1.5,5.1,3.3,7.5,5.3L173.8,781.2z
				 M114.6,775.3l-0.4-0.8c2.7-1.5,5.5-2.8,8.4-3.7l0.3,0.8C120,772.6,117.2,773.9,114.6,775.3z M158.3,772c-2.8-1-5.7-1.8-8.7-2.4
				l0.2-0.9c3,0.5,6,1.4,8.9,2.4L158.3,772z M131.6,769.5l-0.1-0.9c2.6-0.4,5.3-0.6,8-0.6h1.1v0.9h-1.1
				C136.8,768.9,134.2,769.1,131.6,769.5z"/>
		</g>
	</g>
	<g>
		<path class="st1" d="M140,829.7v12.2h-17.1c-1,0-1.8-0.9-1.8-1.8v-18.3l18.8,8.2L140,829.7z"/>
	</g>
	<g>
		<path class="st15" d="M140,799.5v30.3l-0.2,0.1l-18.8-8.2l-7.4-3.2l0,0l-4.2-1.8l-8.5-3.7c9.4-3,32-11.5,38.2-13.8L140,799.5z"/>
	</g>
	<g>
		<path class="st1" d="M140,799.5v30.3l-0.2,0.1l-18.8-8.2l-7.4-3.2l0,0l-4.2-1.8l-8.5-3.7c9.4-3,32-11.5,38.2-13.8L140,799.5z"/>
	</g>
	<g>
		<path class="st0" d="M139.8,812.4h0.2v-1.3c-0.1,0-0.1,0-0.2,0c-2.6,0-4.6,0.9-5.1,2.2l-25.3,3.4l-1.6,0.3v7.4
			c-1.6,0.3-2.9,1.7-2.9,3.5c0,0.8,0.3,1.6,0.7,2.2l-1.5,8.9c-0.1,0.3,0,0.8,0.3,1c0.3,0.3,0.6,0.4,1,0.4h6.1c0.3,0,0.7-0.2,1-0.4
			c0.3-0.3,0.3-0.7,0.3-1l-1.3-9.2c0.3-0.5,0.5-1.2,0.5-1.8c0-1.3-0.7-2.4-1.7-3v-5.8l1.1-0.2l2.1-0.3l0,0l22.1-2.8c1,0.6,2.3,1,4,1
			c0.1,0,0.1,0,0.2,0v-1.3h-0.2c-2.4,0-4-0.9-4-1.5C135.7,813.2,137.4,812.4,139.8,812.4z"/>
	</g>
	<g>
		<path class="st8" d="M161.4,820.4V840c0,1-0.9,1.8-1.8,1.8H140v-12.2L161.4,820.4z"/>
	</g>
	<g>
		<path class="st8" d="M179.1,812.8l-17.6,7.6l-21.4,9.3v-13.1c3,0,5.1-1.2,5.1-2.8s-2.2-2.8-5.1-2.8v-11.6L179.1,812.8z"/>
	</g>
	<g>
		<path class="st9" d="M145.1,813.8c0,1.6-2.2,2.8-5.1,2.8v-1.3c2.3,0,3.8-0.9,3.8-1.5c0-0.6-1.5-1.5-3.8-1.5v-1.3
			C143,811.1,145.1,812.3,145.1,813.8z"/>
	</g>
	<g>
		<path class="st8" d="M143.8,813.8c0,0.6-1.5,1.5-3.8,1.5v-3C142.3,812.4,143.8,813.2,143.8,813.8z"/>
	</g>
</g>
<g>
	<g>
		<g>
			<g>
				<path class="st9" d="M149.1,1559.2h-18.3c-1.6,0-2.9,1.3-2.9,2.9v6.4c0,1.5,1.1,2.7,2.5,2.9c-0.2-0.3-0.3-0.7-0.3-1.1v-5.7
					c0-1.4,1-2.6,2.3-2.6h14.8c1.3,0,2.3,1.1,2.3,2.6v5.7c0,0.4-0.1,0.8-0.3,1.1c1.4-0.2,2.5-1.4,2.5-2.9v-6.4
					C152,1560.5,150.8,1559.2,149.1,1559.2z"/>
			</g>
		</g>
		<g>
			<path class="st8" d="M101.7,1582.5v33.5c0,1.6,1.3,2.9,2.8,2.9h71c1.6,0,2.8-1.3,2.8-2.9v-33.5H101.7z"/>
		</g>
		<g>
			<path class="st1" d="M179.1,1571.6c0-1.7-1.3-3.1-2.9-3.1h-72.4c-1.6,0-2.9,1.4-2.9,3.1v15.7c0,2.8,2.3,4.9,4.9,4.9H174
				c2.8,0,4.9-2.3,4.9-4.9L179.1,1571.6L179.1,1571.6z"/>
		</g>
		<g>
			<path class="st9" d="M146.8,1592.7c0,0.9-0.7,1.6-1.6,1.6h-10.4c-0.9,0-1.6-0.7-1.6-1.6v-2.8c0-0.9,0.7-1.6,1.6-1.6h10.4
				c0.9,0,1.6,0.7,1.6,1.6V1592.7z"/>
		</g>
		<g>
			<path class="st0" d="M144.3,1592.2c0,0.6-0.4,1-1,1h-6.8c-0.6,0-1-0.4-1-1v-1.8c0-0.6,0.4-1,1-1h6.9c0.6,0,1,0.4,1,1
				L144.3,1592.2L144.3,1592.2z"/>
		</g>
		<g>
			<g>
				<path class="st8" d="M130.9,1559.9v1.2c0,0.9,0.7,1.6,1.6,1.6h15.1c0.9,0,1.6-0.7,1.6-1.6v-1.2c-2.3,0.6-5.5,1-9.1,1
					C136.4,1560.9,133.2,1560.5,130.9,1559.9z"/>
			</g>
			<g>
				<path class="st8" d="M147.6,1558.1h-15.1c-0.9,0-1.6,0.7-1.6,1.6v0.2c2.3,0.6,5.5,1,9.1,1c3.6,0,6.8-0.4,9.1-1v-0.2
					C149.1,1558.8,148.4,1558.1,147.6,1558.1z"/>
			</g>
		</g>
	</g>
	<g>
		<g>
			<path class="st0" d="M140.5,1641h-1.2v-0.9h1.2c2.7,0,5.4-0.2,8-0.6l0.1,0.9C146,1640.8,143.2,1641,140.5,1641z M130.1,1640.2
				c-3-0.5-6-1.4-8.8-2.4l0.3-0.8c2.8,1,5.7,1.9,8.7,2.4L130.1,1640.2z M157.5,1638.2l-0.3-0.8c2.8-1,5.6-2.2,8.2-3.7l0.4,0.8
				C163.2,1635.9,160.4,1637.2,157.5,1638.2z M113,1633.8c-2.6-1.6-5.1-3.4-7.5-5.4l0.6-0.7c2.3,2,4.7,3.7,7.3,5.3L113,1633.8z
				 M173.5,1629.3l-0.6-0.7c2.3-1.9,4.5-4,6.4-6.3l0.7,0.6C178.1,1625.2,175.8,1627.3,173.5,1629.3z M99.1,1621.9
				c-1.9-2.4-3.7-4.9-5.1-7.6l0.8-0.4c1.5,2.6,3.2,5.1,5.1,7.5L99.1,1621.9z M185.4,1615.4l-0.7-0.4c1.5-2.6,2.8-5.3,3.9-8.1
				l0.8,0.3C188.2,1609.9,186.9,1612.7,185.4,1615.4z M90.3,1605.9c-1-2.9-1.7-5.9-2.2-8.9l0.9-0.1c0.5,3,1.2,5.9,2.2,8.8
				L90.3,1605.9z M191.7,1598.2l-0.9-0.2c0.5-2.9,0.8-6,0.8-9h0.9C192.5,1592.2,192.2,1595.2,191.7,1598.2z M88.3,1587.9l-0.9,0
				c0-3.1,0.3-6.1,0.8-9.1l0.9,0.2C88.6,1581.8,88.4,1584.8,88.3,1587.9z M191,1580.1c-0.5-3-1.2-5.9-2.2-8.8l0.8-0.3
				c1,2.9,1.7,5.9,2.2,8.9L191,1580.1z M91.5,1570.2l-0.8-0.3c1.1-2.9,2.4-5.6,3.9-8.3l0.7,0.4C93.9,1564.6,92.6,1567.4,91.5,1570.2
				z M185.2,1563.1c-1.5-2.6-3.2-5.1-5.1-7.5l0.7-0.5c1.9,2.4,3.7,4.9,5.2,7.6L185.2,1563.1z M100.7,1554.7l-0.7-0.6
				c2-2.3,4.2-4.5,6.6-6.4l0.5,0.7C104.8,1550.3,102.6,1552.4,100.7,1554.7z M173.8,1549.2c-2.3-2-4.8-3.7-7.3-5.2l0.4-0.7
				c2.6,1.5,5.1,3.3,7.5,5.3L173.8,1549.2z M114.6,1543.3l-0.4-0.8c2.7-1.5,5.5-2.8,8.4-3.7l0.3,0.8
				C120,1540.6,117.2,1541.9,114.6,1543.3z M158.3,1540c-2.8-1-5.7-1.8-8.7-2.4l0.2-0.9c3,0.5,6,1.4,8.9,2.4L158.3,1540z
				 M131.6,1537.5l-0.1-0.9c2.6-0.4,5.3-0.6,8-0.6h1.1v0.9h-1.1C136.8,1536.9,134.2,1537.1,131.6,1537.5z"/>
		</g>
	</g>
</g>
<g>
	<g>
		<g>
			<path class="st16" d="M122,2368.9h-13.3c-1.3,0-2.3,1-2.3,2.3v22.1c0,1.3,1,2.3,2.3,2.3H122c1.3,0,2.3-1,2.3-2.3v-22
				C124.3,2370,123.2,2368.9,122,2368.9z"/>
		</g>
		<g>
			<path class="st17" d="M146.5,2356.6h-13.3c-1.3,0-2.3,1-2.3,2.3v34.4c0,1.3,1,2.3,2.3,2.3h13.3c1.3,0,2.3-1,2.3-2.3v-34.4
				C148.9,2357.7,147.8,2356.6,146.5,2356.6z"/>
		</g>
		<g>
			<path class="st8" d="M171.3,2338H158c-1.3,0-2.3,1-2.3,2.3v53c0,1.3,1,2.3,2.3,2.3h13.3c1.3,0,2.3-1,2.3-2.3v-53
				C173.4,2339.1,172.6,2338,171.3,2338z"/>
		</g>
		<g>
			<path class="st0" d="M173,2320.3c-0.3-0.6-0.9-1-1.6-1.1l-8.5-1.7c-1.2-0.3-2.4,0.5-2.7,1.8c-0.3,1.3,0.5,2.4,1.8,2.7l2.3,0.4
				l-20.1,11.3l-9.5-4.9c-0.7-0.3-1.5-0.3-2.1,0l-25,13.1c-1.1,0.6-1.6,2-1,3.1c0.4,0.8,1.2,1.2,2,1.2c0.3,0,0.7-0.1,1-0.3
				l23.9-12.6l9.5,4.9c0.7,0.3,1.5,0.3,2.2,0l21.2-11.8l-0.8,2.2c-0.4,1.2,0.2,2.5,1.3,3c0.3,0.1,0.5,0.2,0.8,0.2
				c1,0,1.8-0.6,2.2-1.5l3-8C173.4,2321.6,173.4,2320.9,173,2320.3z"/>
		</g>
		<g>
			<path class="st1" d="M146.5,2395.6c1.3,0,2.3-1,2.3-2.3V2359c0-1.3-1-2.3-2.3-2.3H140v39L146.5,2395.6L146.5,2395.6z"/>
		</g>
		<g>
			<path class="st9" d="M173,2320.3c-0.3-0.6-0.9-1-1.6-1.1l-8.5-1.7c-1.2-0.3-2.4,0.5-2.7,1.8c-0.3,1.3,0.5,2.4,1.8,2.7l2.3,0.4
				l-20.1,11.3l-4.4-2.3v5.1l3.4,1.7c0.7,0.3,1.5,0.3,2.2,0l21.2-11.8l-0.8,2.2c-0.4,1.2,0.2,2.5,1.3,3c0.3,0.1,0.5,0.2,0.8,0.2
				c1,0,1.8-0.6,2.2-1.5l3-8C173.4,2321.6,173.4,2320.9,173,2320.3z"/>
		</g>
	</g>
	<g>
		<g>
			<path class="st0" d="M140.5,2409l-1.3,0v-0.9l1.3,0c2.7,0,5.4-0.2,8-0.6l0.1,0.9C146,2408.8,143.2,2409,140.5,2409z
				 M130.1,2408.2c-3-0.5-6-1.4-8.8-2.4l0.3-0.8c2.8,1,5.7,1.9,8.7,2.4L130.1,2408.2z M157.5,2406.2l-0.3-0.8c2.8-1,5.6-2.2,8.2-3.7
				l0.4,0.8C163.2,2403.9,160.4,2405.2,157.5,2406.2z M113,2401.8c-2.6-1.6-5.1-3.4-7.5-5.3l0.6-0.7c2.3,2,4.7,3.7,7.3,5.3
				L113,2401.8z M173.5,2397.3l-0.6-0.7c2.3-1.9,4.5-4,6.4-6.3l0.7,0.6C178.1,2393.2,175.8,2395.3,173.5,2397.3z M99.1,2389.9
				c-1.9-2.4-3.7-4.9-5.2-7.6l0.8-0.4c1.5,2.6,3.2,5.1,5.1,7.5L99.1,2389.9z M185.4,2383.4l-0.7-0.4c1.5-2.6,2.8-5.3,3.9-8.1
				l0.8,0.3C188.2,2377.9,186.9,2380.7,185.4,2383.4z M90.2,2373.9c-1-2.9-1.7-5.9-2.2-8.9l0.9-0.1c0.4,3,1.2,5.9,2.1,8.8
				L90.2,2373.9z M191.7,2366.2l-0.9-0.2c0.5-2.9,0.8-6,0.8-9h0.9C192.5,2360.2,192.2,2363.2,191.7,2366.2z M88.3,2355.9l-0.9,0
				c0-3.1,0.3-6.1,0.8-9.1l0.9,0.2C88.6,2349.8,88.4,2352.8,88.3,2355.9z M191,2348.1c-0.5-3-1.2-5.9-2.2-8.8l0.8-0.3
				c1,2.9,1.7,5.9,2.2,8.9L191,2348.1z M91.5,2338.2l-0.8-0.3c1.1-2.9,2.4-5.6,3.9-8.3l0.7,0.4C93.9,2332.6,92.6,2335.4,91.5,2338.2
				z M185.2,2331.1c-1.5-2.6-3.2-5.1-5.1-7.5l0.7-0.5c1.9,2.4,3.7,4.9,5.2,7.6L185.2,2331.1z M100.7,2322.7l-0.7-0.6
				c2-2.3,4.2-4.5,6.6-6.4l0.5,0.7C104.8,2318.3,102.6,2320.4,100.7,2322.7z M173.8,2317.2c-2.3-2-4.8-3.7-7.3-5.2l0.4-0.7
				c2.6,1.5,5.1,3.3,7.5,5.3L173.8,2317.2z M114.6,2311.3l-0.4-0.8c2.7-1.5,5.5-2.8,8.4-3.7l0.3,0.8
				C120,2308.6,117.2,2309.9,114.6,2311.3z M158.3,2308c-2.8-1-5.7-1.8-8.7-2.4l0.2-0.9c3,0.5,6,1.4,8.9,2.4L158.3,2308z
				 M131.6,2305.5l-0.1-0.9c2.6-0.4,5.3-0.6,8-0.6h1.1v0.9h-1.1C136.8,2304.9,134.2,2305.1,131.6,2305.5z"/>
		</g>
	</g>
</g>
<g>
	<path class="st0" d="M139.9,2304.9H139v-11.1h0.9V2304.9z M139.9,2282.7H139v-11.1h0.9V2282.7z M139.9,2260.6H139v-11.1h0.9V2260.6
		z M139.9,2238.5H139v-11.1h0.9V2238.5z M139.9,2216.3H139v-11.1h0.9V2216.3z M139.9,2194.2H139v-11.1h0.9V2194.2z M139.9,2172H139
		V2161h0.9V2172z M139.9,2149.9H139v-11.1h0.9V2149.9z M139.9,2127.8H139v-11.1h0.9V2127.8z M139.9,2105.6H139v-11.1h0.9V2105.6z
		 M139.9,2083.5H139v-11.1h0.9V2083.5z M139.9,2061.3H139v-11.1h0.9V2061.3z M139.9,2039.2H139v-11.1h0.9V2039.2z M139.9,2017.1H139
		V2006h0.9V2017.1z M139.9,1994.9H139v-11.1h0.9V1994.9z M139.9,1972.8H139v-11.1h0.9V1972.8z M139.9,1950.6H139v-11.1h0.9V1950.6z
		 M139.9,1928.5H139v-11.1h0.9V1928.5z M139.9,1906.4H139v-11.1h0.9V1906.4z M139.9,1884.2H139v-11.1h0.9V1884.2z M139.9,1862.1H139
		V1851h0.9V1862.1z M139.9,1839.9H139v-11.1h0.9V1839.9z M139.9,1817.8H139v-11.1h0.9V1817.8z M139.9,1795.7H139v-11.1h0.9V1795.7z
		 M139.9,1773.5H139v-11.1h0.9V1773.5z M139.9,1751.4H139v-11.1h0.9V1751.4z M139.9,1729.2H139v-11.1h0.9V1729.2z M139.9,1707.1H139
		V1696h0.9V1707.1z M139.9,1685H139v-11.1h0.9V1685z M139.9,1662.8H139v-11.1h0.9V1662.8z M139,1640.7L139,1640.7l0.9-0.1
		L139,1640.7z"/>
</g>
<g>
	<path class="st0" d="M139.9,768.8H139v-11h0.9V768.8z M139.9,746.7H139v-11h0.9V746.7z M139.9,724.6H139v-11h0.9V724.6z
		 M139.9,702.5H139v-11h0.9V702.5z M139.9,680.4H139v-11h0.9V680.4z M139.9,658.3H139v-11h0.9V658.3z M139.9,636.2H139v-11h0.9
		V636.2z M139.9,614.1H139v-11h0.9V614.1z M139.9,592H139v-11h0.9V592z M139.9,569.9H139v-11h0.9V569.9z M139.9,547.8H139v-11h0.9
		V547.8z M139.9,525.8H139v-11h0.9V525.8z M139.9,503.7H139v-11h0.9V503.7z M139.9,481.6H139v-11h0.9V481.6z M139.9,459.5H139v-11
		h0.9V459.5z M139.9,437.4H139v-11h0.9V437.4z M139.9,415.3H139v-11h0.9V415.3z M139.9,393.2H139v-11h0.9V393.2z M139.9,371.1H139
		v-11h0.9V371.1z M139.9,349H139v-11h0.9V349z M139.9,326.9H139v-11h0.9V326.9z M139.9,304.8H139v-11h0.9V304.8z M139.9,282.7H139
		v-11h0.9V282.7z M139.9,260.6H139v-11h0.9V260.6z M139.9,238.5H139v-11h0.9V238.5z M139.9,216.4H139v-11h0.9V216.4z M139.9,194.3
		H139v-11h0.9V194.3z M139.9,172.2H139v-11h0.9V172.2z M139.9,150.1H139v-11h0.9V150.1z M139.9,128H139v-11h0.9V128z M139.9,105.9
		H139v-1.3h0.9V105.9z"/>
</g>
<g>
	<path class="st0" d="M139.9,1536H139v-11.3h0.9V1536z M139.9,1513.5H139v-11.3h0.9V1513.5z M139.9,1490.9H139v-11.3h0.9V1490.9z
		 M139.9,1468.4H139v-11.3h0.9V1468.4z M139.9,1445.9H139v-11.3h0.9V1445.9z M139.9,1423.3H139v-11.3h0.9V1423.3z M139.9,1400.8H139
		v-11.3h0.9V1400.8z M139.9,1378.2H139V1367h0.9V1378.2z M139.9,1355.7H139v-11.3h0.9V1355.7z M139.9,1333.2H139v-11.3h0.9V1333.2z
		 M139.9,1310.6H139v-11.3h0.9V1310.6z M139.9,1288.1H139v-11.3h0.9V1288.1z M139.9,1265.6H139v-11.3h0.9V1265.6z M139.9,1243H139
		v-11.3h0.9V1243z M139.9,1220.5H139v-11.3h0.9V1220.5z M139.9,1198H139v-11.3h0.9V1198z M139.9,1175.4H139v-11.3h0.9V1175.4z
		 M139.9,1152.9H139v-11.3h0.9V1152.9z M139.9,1130.4H139v-11.3h0.9V1130.4z M139.9,1107.8H139v-11.3h0.9V1107.8z M139.9,1085.3H139
		V1074h0.9V1085.3z M139.9,1062.7H139v-11.3h0.9V1062.7z M139.9,1040.2H139v-11.3h0.9V1040.2z M139.9,1017.7H139v-11.3h0.9V1017.7z
		 M139.9,995.1H139v-11.3h0.9V995.1z M139.9,972.6H139v-11.3h0.9V972.6z M139.9,950.1H139v-11.3h0.9V950.1z M139.9,927.5H139v-11.3
		h0.9V927.5z M139.9,905H139v-11.3h0.9V905z M139.9,882.5H139v-9.8h0.9V882.5z"/>
</g>
</svg>
