<?xml version="1.0" encoding="utf-8"?>
<!-- Generator: Adobe Illustrator 24.3.0, SVG Export Plug-In . SVG Version: 6.00 Build 0)  -->
<svg version="1.1" id="Camada_1" xmlns="http://www.w3.org/2000/svg" xmlns:xlink="http://www.w3.org/1999/xlink" x="0px" y="0px"
	 viewBox="0 0 517 263" style="enable-background:new 0 0 517 263;" xml:space="preserve">
<style type="text/css">
	.st0{fill:#FC600A;}
	.st1{fill:#4424D6;}
	.st2{fill:#B2D732;}
	.st3{fill:#110934;}
</style>
<g>
	<path class="st0" d="M396.56,141.19v121.83h-62.9V157.66c0-12.68-2.46-21.46-7.4-26.34c-4.93-4.88-11.22-7.32-18.87-7.32
		c-5.91,0-11.46,1.41-16.64,4.21c-5.18,2.8-9.25,7.26-12.21,13.35c-1.83,3.76-3.09,8.31-3.79,13.65v-48.89
		c0.67-1.09,1.38-2.14,2.12-3.17c6.29-8.78,14.18-15.43,23.68-19.94c9.49-4.51,20.16-6.77,32-6.77c12.83,0,23.99,2.44,33.49,7.32
		c9.49,4.88,16.95,12.07,22.38,21.58c1.19,2.08,2.24,4.28,3.16,6.6C394.9,120.2,396.56,129.96,396.56,141.19z"/>
	<path class="st1" d="M516.56,141.19v121.83h-62.9V157.66c0-12.68-2.46-21.46-7.4-26.34c-4.93-4.88-11.22-7.32-18.87-7.32
		c-5.91,0-11.46,1.41-16.64,4.21c-5.18,2.8-9.25,7.26-12.21,13.35c-0.76,1.56-1.42,3.26-1.98,5.1v-5.47
		c0-11.23-1.66-20.99-4.98-29.25c1.57-3.14,3.34-6.07,5.29-8.79c6.29-8.78,14.18-15.43,23.68-19.94c9.49-4.51,20.16-6.77,32-6.77
		c12.83,0,23.99,2.44,33.49,7.32c9.49,4.88,16.95,12.07,22.38,21.58C513.84,114.85,516.56,126.81,516.56,141.19z"/>
	<polygon class="st2" points="110.68,263.02 69.51,263.02 0,80.1 53.78,80.1 98.75,224.66 110.66,262.95 	"/>
	<polygon class="st3" points="196.83,80.1 127.32,263.02 110.66,262.95 98.75,224.66 144.88,80.1 	"/>
	<path class="st0" d="M249.87,53.76c-10.49,0-18.29-2.25-23.41-6.77c-5.12-4.51-7.68-11.16-7.68-19.94c0-9.02,2.56-15.79,7.68-20.3
		c5.12-4.51,12.92-6.77,23.41-6.77c10.48,0,18.29,2.26,23.42,6.77c5.12,4.52,7.68,11.28,7.68,20.3c0,8.78-2.56,15.43-7.68,19.94
		C268.16,51.51,260.35,53.76,249.87,53.76z"/>
	<rect x="224.63" y="80.1" class="st3" width="50.12" height="182.92"/>
</g>
</svg>
