<?xml version="1.0" encoding="utf-8"?>
<!-- Generator: Adobe Illustrator 24.3.0, SVG Export Plug-In . SVG Version: 6.00 Build 0)  -->
<svg version="1.1" id="Camada_1" xmlns="http://www.w3.org/2000/svg" xmlns:xlink="http://www.w3.org/1999/xlink" x="0px" y="0px"
	 viewBox="0 0 1004 263" style="enable-background:new 0 0 1004 263;" xml:space="preserve">
<style type="text/css">
	.st0{fill:url(#SVGID_1_);}
	.st1{fill:url(#SVGID_2_);}
	.st2{fill:url(#SVGID_3_);}
	.st3{fill:url(#SVGID_4_);}
	.st4{fill:url(#SVGID_5_);}
	.st5{fill:url(#SVGID_6_);}
	.st6{fill:url(#SVGID_7_);}
	.st7{fill:url(#SVGID_8_);}
	.st8{fill:url(#SVGID_9_);}
	.st9{fill:#F0F7D4;}
	.st10{fill:#B2D732;}
	.st11{fill:#FC600A;}
	.st12{fill:#4424D6;}
</style>
<g>
	<g>
		<linearGradient id="SVGID_1_" gradientUnits="userSpaceOnUse" x1="0.22" y1="131.5" x2="1003.78" y2="131.5">
			<stop  offset="0" style="stop-color:#FFFFFF"/>
			<stop  offset="1" style="stop-color:#000000"/>
		</linearGradient>
		<polygon class="st0" points="197.05,80.1 127.54,263.02 110.88,262.95 98.97,224.66 145.1,80.1 		"/>
		<linearGradient id="SVGID_2_" gradientUnits="userSpaceOnUse" x1="0.22" y1="131.5" x2="1003.78" y2="131.5">
			<stop  offset="0" style="stop-color:#FFFFFF"/>
			<stop  offset="1" style="stop-color:#000000"/>
		</linearGradient>
		<polygon class="st1" points="110.9,263.02 69.73,263.02 0.22,80.1 54,80.1 98.97,224.66 110.88,262.95 		"/>
		<linearGradient id="SVGID_3_" gradientUnits="userSpaceOnUse" x1="0.22" y1="131.5" x2="1003.78" y2="131.5">
			<stop  offset="0" style="stop-color:#FFFFFF"/>
			<stop  offset="1" style="stop-color:#000000"/>
		</linearGradient>
		<path class="st2" d="M250.09,53.76c-10.49,0-18.29-2.25-23.41-6.77c-5.12-4.51-7.68-11.16-7.68-19.94c0-9.02,2.56-15.79,7.68-20.3
			c5.12-4.51,12.92-6.77,23.41-6.77c10.48,0,18.29,2.26,23.42,6.77c5.12,4.52,7.68,11.28,7.68,20.3c0,8.78-2.56,15.43-7.68,19.94
			C268.38,51.5,260.57,53.76,250.09,53.76z"/>
		<linearGradient id="SVGID_4_" gradientUnits="userSpaceOnUse" x1="0.22" y1="131.5" x2="1003.78" y2="131.5">
			<stop  offset="0" style="stop-color:#FFFFFF"/>
			<stop  offset="1" style="stop-color:#000000"/>
		</linearGradient>
		<rect x="224.85" y="80.1" class="st3" width="50.12" height="182.92"/>
		<linearGradient id="SVGID_5_" gradientUnits="userSpaceOnUse" x1="0.22" y1="131.5" x2="1003.78" y2="131.5">
			<stop  offset="0" style="stop-color:#FFFFFF"/>
			<stop  offset="1" style="stop-color:#000000"/>
		</linearGradient>
		<path class="st4" d="M446.55,215.55c-3.66,3.1-7.74,5.55-12.25,7.35c-4.52,1.79-9.95,2.68-16.29,2.68
			c-7.8,0-13.96-1.97-18.47-5.92c-4.52-3.94-6.77-10.21-6.77-18.8v-54.83h58.54v-36.54h-58.54V80.1h-50.12v29.38h-33.66v36.54h33.66
			v62.71c0,13.13,2.62,23.64,7.87,31.53c5.24,7.88,12.55,13.61,21.95,17.2c9.38,3.58,20.18,5.38,32.37,5.38
			c9.76,0,19.03-1.31,27.81-3.95c8.78-2.62,16.1-6.2,21.95-10.74L446.55,215.55z"/>
		<linearGradient id="SVGID_6_" gradientUnits="userSpaceOnUse" x1="0.22" y1="131.5" x2="1003.78" y2="131.5">
			<stop  offset="0" style="stop-color:#FFFFFF"/>
			<stop  offset="1" style="stop-color:#000000"/>
		</linearGradient>
		<path class="st5" d="M548.99,262.84c-12.2,0-23.17-2.15-32.93-6.45c-9.76-4.3-17.5-11.16-23.23-20.6
			c-5.73-9.43-8.6-21.68-8.6-36.73V80.1h50.12v107.14c0,13.86,2.93,23.47,8.78,28.84c5.85,5.38,14.27,8.06,25.24,8.06
			c5.12,0,10.12-0.9,15-2.69c4.88-1.79,9.2-4.6,12.99-8.42c3.78-3.82,6.77-8.78,8.96-14.87c2.19-6.09,3.29-13.31,3.29-21.68V80.1
			h50.12v179.16h-44.63l-1.83-31.17c-6.1,11.95-14.45,20.73-25.06,26.34C576.61,260.03,563.86,262.84,548.99,262.84z"/>
		<linearGradient id="SVGID_7_" gradientUnits="userSpaceOnUse" x1="0.22" y1="131.5" x2="1003.78" y2="131.5">
			<stop  offset="0" style="stop-color:#FFFFFF"/>
			<stop  offset="1" style="stop-color:#000000"/>
		</linearGradient>
		<polygon class="st6" points="761.54,263.02 711.42,263.02 711.42,80.1 756.42,80.1 758.25,113.02 758.25,113.06 761.32,252.99 		
			"/>
		<linearGradient id="SVGID_8_" gradientUnits="userSpaceOnUse" x1="0.22" y1="131.5" x2="1003.78" y2="131.5">
			<stop  offset="0" style="stop-color:#FFFFFF"/>
			<stop  offset="1" style="stop-color:#000000"/>
		</linearGradient>
		<path class="st7" d="M883.78,141.19v121.83h-62.9V157.66c0-12.68-2.46-21.46-7.4-26.34c-4.93-4.88-11.22-7.32-18.87-7.32
			c-5.91,0-11.46,1.41-16.64,4.21s-9.25,7.26-12.21,13.35c-2.96,6.1-4.44,14.27-4.44,24.51v86.92l-3.07-139.93
			c1.71-3.57,3.66-6.87,5.84-9.91c6.29-8.78,14.18-15.43,23.68-19.94c9.49-4.51,20.16-6.77,32-6.77c12.83,0,23.99,2.44,33.49,7.32
			c9.49,4.88,16.95,12.07,22.38,21.58c1.19,2.08,2.24,4.28,3.16,6.6C882.12,120.2,883.78,129.96,883.78,141.19z"/>
		<linearGradient id="SVGID_9_" gradientUnits="userSpaceOnUse" x1="0.22" y1="131.5" x2="1003.78" y2="131.5">
			<stop  offset="0" style="stop-color:#FFFFFF"/>
			<stop  offset="1" style="stop-color:#000000"/>
		</linearGradient>
		<path class="st8" d="M1003.78,141.19v121.83h-62.9V157.66c0-12.68-2.46-21.46-7.4-26.34c-4.93-4.88-11.22-7.32-18.87-7.32
			c-5.91,0-11.46,1.41-16.64,4.21s-9.25,7.26-12.21,13.35c-0.76,1.56-1.42,3.26-1.98,5.1v-5.47c0-11.23-1.66-20.99-4.98-29.25
			c1.57-3.14,3.34-6.07,5.29-8.79c6.29-8.78,14.18-15.43,23.68-19.94c9.49-4.51,20.16-6.77,32-6.77c12.83,0,23.99,2.44,33.49,7.32
			c9.49,4.88,16.95,12.07,22.38,21.58C1001.06,114.85,1003.78,126.81,1003.78,141.19z"/>
	</g>
	<g>
		<polygon class="st9" points="197.05,80.1 127.54,263.02 110.88,262.95 98.97,224.66 145.1,80.1 		"/>
		<polygon class="st10" points="110.9,263.02 69.73,263.02 0.22,80.1 54,80.1 98.97,224.66 110.88,262.95 		"/>
		<path class="st11" d="M250.09,53.76c-10.49,0-18.29-2.25-23.41-6.77c-5.12-4.51-7.68-11.16-7.68-19.94
			c0-9.02,2.56-15.79,7.68-20.3c5.12-4.51,12.92-6.77,23.41-6.77c10.48,0,18.29,2.26,23.42,6.77c5.12,4.52,7.68,11.28,7.68,20.3
			c0,8.78-2.56,15.43-7.68,19.94C268.38,51.5,260.57,53.76,250.09,53.76z"/>
		<rect x="224.85" y="80.1" class="st9" width="50.12" height="182.92"/>
		<path class="st9" d="M446.55,215.55c-3.66,3.1-7.74,5.55-12.25,7.35c-4.52,1.79-9.95,2.68-16.29,2.68
			c-7.8,0-13.96-1.97-18.47-5.92c-4.52-3.94-6.77-10.21-6.77-18.8v-54.83h58.54v-36.54h-58.54V80.1h-50.12v29.38h-33.66v36.54h33.66
			v62.71c0,13.13,2.62,23.64,7.87,31.53c5.24,7.88,12.55,13.61,21.95,17.2c9.38,3.58,20.18,5.38,32.37,5.38
			c9.76,0,19.03-1.31,27.81-3.95c8.78-2.62,16.1-6.2,21.95-10.74L446.55,215.55z"/>
		<path class="st9" d="M548.99,262.84c-12.2,0-23.17-2.15-32.93-6.45c-9.76-4.3-17.5-11.16-23.23-20.6
			c-5.73-9.43-8.6-21.68-8.6-36.73V80.1h50.12v107.14c0,13.86,2.93,23.47,8.78,28.84c5.85,5.38,14.27,8.06,25.24,8.06
			c5.12,0,10.12-0.9,15-2.69c4.88-1.79,9.2-4.6,12.99-8.42c3.78-3.82,6.77-8.78,8.96-14.87c2.19-6.09,3.29-13.31,3.29-21.68V80.1
			h50.12v179.16h-44.63l-1.83-31.17c-6.1,11.95-14.45,20.73-25.06,26.34C576.61,260.03,563.86,262.84,548.99,262.84z"/>
		<polygon class="st9" points="761.54,263.02 711.42,263.02 711.42,80.1 756.42,80.1 758.25,113.02 758.25,113.06 761.32,252.99 		
			"/>
		<path class="st11" d="M883.78,141.19v121.83h-62.9V157.66c0-12.68-2.46-21.46-7.4-26.34c-4.93-4.88-11.22-7.32-18.87-7.32
			c-5.91,0-11.46,1.41-16.64,4.21s-9.25,7.26-12.21,13.35c-2.96,6.1-4.44,14.27-4.44,24.51v86.92l-3.07-139.93
			c1.71-3.57,3.66-6.87,5.84-9.91c6.29-8.78,14.18-15.43,23.68-19.94c9.49-4.51,20.16-6.77,32-6.77c12.83,0,23.99,2.44,33.49,7.32
			c9.49,4.88,16.95,12.07,22.38,21.58c1.19,2.08,2.24,4.28,3.16,6.6C882.12,120.2,883.78,129.96,883.78,141.19z"/>
		<path class="st12" d="M1003.78,141.19v121.83h-62.9V157.66c0-12.68-2.46-21.46-7.4-26.34c-4.93-4.88-11.22-7.32-18.87-7.32
			c-5.91,0-11.46,1.41-16.64,4.21s-9.25,7.26-12.21,13.35c-0.76,1.56-1.42,3.26-1.98,5.1v-5.47c0-11.23-1.66-20.99-4.98-29.25
			c1.57-3.14,3.34-6.07,5.29-8.79c6.29-8.78,14.18-15.43,23.68-19.94c9.49-4.51,20.16-6.77,32-6.77c12.83,0,23.99,2.44,33.49,7.32
			c9.49,4.88,16.95,12.07,22.38,21.58C1001.06,114.85,1003.78,126.81,1003.78,141.19z"/>
	</g>
</g>
</svg>
